<?xml version="1.0" encoding="UTF-8"?>
<svg id="Layer_1" data-name="Layer 1" xmlns="http://www.w3.org/2000/svg" viewBox="0 0 193.79 179.88">
  <defs>
    <style>
      .cls-1 {
        fill: #fff;
      }

      .cls-2 {
        fill: #00539f;
      }

      .cls-3 {
        fill: none;
      }
    </style>
  </defs>
  <g>
    <path class="cls-3" d="m40.85,46.37c1.01.02,2-.92,1.95-1.94-.05-1.11-.79-1.96-1.87-1.94-1.16,0-2.03.84-2.03,1.98,0,1.08.82,1.89,1.95,1.9Z"/>
    <path class="cls-3" d="m35.12,49.6c-.3-.2-.68-.18-.98.09-.17.15-.31.35-.52.59.52.36.96.67,1.45,1.01.13-.28.27-.51.35-.76.14-.41.03-.7-.31-.92Z"/>
    <path class="cls-3" d="m89.01,27.84c-1.1-.5-2.23-.56-3.35-.04-.53.24-.78.66-.78,1.24,0,1.04.26,2,.79,2.95.09-.04.15-.05.21-.09.72-.42,1.43-.84,2.15-1.27.4-.24.82-.44,1.19-.72.72-.56.62-1.7-.21-2.07Z"/>
    <path class="cls-3" d="m71.76,25.34c1.14-.08,1.98-.77,1.96-1.95-.01-1.34-.92-1.94-1.9-1.93-1.32,0-2.06.92-2.03,1.98.02,1.06.72,1.83,1.97,1.91Z"/>
    <path class="cls-3" d="m45.35,146.7c-.41.4-.81.82-1.24,1.26.09.11.14.18.2.23,2.12,1.84,4.21,3.71,6.36,5.51,1.65,1.39,3.38,2.68,5.23,3.8.39.24.8.45,1.3.55.19-.55.37-1.06.53-1.58.57-1.8,1.13-3.6,1.7-5.4.18-.55.29-.64.88-.65.48,0,.96-.02,1.44,0,1.42.04,2.85.12,4.27.15,1.45.03,2.91.03,4.36.03.13,0,.26-.01.39-.02,0-.03,0-.06.01-.09-7.21-4.17-13.79-9.19-20.08-14.63-.01.13,0,.24.03.34.36,1.24.54,2.5.46,3.8-.04.65-.27,1.2-.73,1.66-.3.3-.61.58-.91.88-1.4,1.39-2.81,2.77-4.21,4.17Z"/>
    <path class="cls-3" d="m31.16,55.42c-.23-.08-.44-.05-.58.12-.25.3-.47.64-.72.99.54.3,1.01.56,1.53.86.14-.29.24-.51.35-.72.33-.62-.09-1.07-.58-1.24Z"/>
    <path class="cls-3" d="m87.15,32.71c-.24.14-.48.28-.76.44.12.17.21.33.33.45.37.38.74.78,1.15,1.13,1.13.94,2.42,1.49,3.9,1.52,1.96.04,3.92.09,5.88.09,1.92,0,3.84-.04,5.75-.09.8-.02,1.57-.22,2.17-.81.5-.5.92-1.07,1.32-1.75-.4-.25-.76-.49-1.14-.7-.76-.44-1.45-.98-2.06-1.61-.8-.83-1.26-1.78-1.17-2.97.07-.83.06-1.66.11-2.49.06-.9.15-1.8.22-2.7.01-.17,0-.34,0-.51-2.09.28-4.13.33-6.18.3-2.06-.03-4.1-.14-6.19-.47,0,.17,0,.31.02.44.04.45.09.9.13,1.35.08.81.15,1.63.22,2.44.06.65.15,1.29.19,1.93.06,1.14-.46,1.98-1.43,2.55-.83.49-1.66.96-2.49,1.44Z"/>
    <path class="cls-3" d="m49.79,140.3c.39-1.5-.19-2.85-.45-4.3-.86.43-1.67.84-2.5,1.26.97,1.07,1.92,2.08,2.94,3.05Z"/>
    <path class="cls-3" d="m37.41,64.2c-.06.15-.06.38.01.52.39.84,1.12,1.35,2.17,1,1.3-.43,2.3-1.29,3.3-2.15,0,0,.01-.03.05-.12-1.2-1-2.48-1.87-3.83-2.72-.15.24-.29.43-.41.63-.14.24-.28.49-.4.75-.31.69-.62,1.39-.89,2.09Z"/>
    <path class="cls-3" d="m36.02,64.73c.15-1.77.7-2.56,1.37-3.9.11-.23.25-.44.38-.66,1.06-1.73,2.08-3.49,3.19-5.18.83-1.26,1.75-2.46,2.66-3.66,1.59-2.11,3.35-4.07,5.22-5.94,1.25-1.24,2.55-2.43,3.86-3.61.81-.73,1.64-1.42,2.51-2.07,1.32-.99,2.66-1.95,4.02-2.89.93-.64,1.87-1.26,2.83-1.85.87-.53,1.76-1.01,2.66-1.48,1.12-.59,2.23-1.2,3.38-1.73,1.45-.66,2.91-1.28,4.39-1.87,1.86-.74,3.76-1.35,5.68-1.91,2.52-.73,5.08-1.28,7.66-1.72,1.12-.19,2.25-.18,3.35.18.08.02.16.02.27.04,0-.23.02-.44,0-.65-.1-1.07-.18-2.13-.31-3.2-.15-1.23-.32-2.46-.51-3.68-.14-.86-.29-1.73-.51-2.57-.38-1.4-1.11-2.54-2.49-3.19-.56-.26-1.14-.36-1.73-.24-1.97.4-3.96.77-5.91,1.24-3.22.78-6.39,1.75-9.48,2.95-1.82.71-3.63,1.47-5.41,2.28-2.59,1.18-5.11,2.51-7.55,3.98-1.85,1.11-3.69,2.24-5.43,3.51-1.59,1.16-3.18,2.34-4.73,3.57-1.91,1.52-3.73,3.15-5.44,4.89-1.38,1.4-2.76,2.79-4.06,4.26-1.31,1.49-2.55,3.05-3.78,4.62-1.26,1.61-2.42,3.3-3.53,5.01-1.26,1.94-2.39,3.95-3.51,5.98-.44.79-.5,1.59-.19,2.44.48,1.32,1.45,2.21,2.61,2.89,1.04.62,2.12,1.17,3.2,1.73,1.65.87,3.34,1.64,5.07,2.33.08.03.17.06.27.09Zm42.08-46.91c.13-.01.29.11.4.2.82.66,1.64,1.34,2.46,2.01.44.36.89.72,1.42,1.15-.22-1.45-.68-2.76-.86-4.17.63-.12,1.19-.23,1.79-.34.52,2.33,1.02,4.6,1.54,6.91-.55.1-1.06.2-1.57.28-.25.04-.46-.06-.65-.23-1.21-1.02-2.42-2.03-3.63-3.04-.02-.02-.05-.02-.15-.07.3,1.41.59,2.76.89,4.16-.59.12-1.16.24-1.79.37-.61-2.27-.96-4.58-1.57-6.86.59-.19,1.16-.31,1.74-.37Zm-7.4,1.96c1.46-.45,2.81-.16,3.92.91,1.33,1.29,1.38,3.57.35,4.89-.64.82-1.84,1.68-3.38,1.6-1.85.15-3.46-1.59-3.68-3.14-.32-2.2,1.14-3.75,2.8-4.26Zm-5.6,2.45c.96,2.08,1.9,4.12,2.84,6.16.04.08.03.19.04.32-.54.25-1.08.49-1.64.75-.99-2.16-1.97-4.28-2.97-6.45.6-.27,1.14-.51,1.73-.77Zm-3.26,1.52c.33.44.53.88.76,1.37-.43.25-.84.49-1.29.75.87,1.59,1.73,3.17,2.6,4.77-.54.31-1.06.6-1.63.93-.11-.17-.22-.32-.31-.49-.68-1.26-1.36-2.53-2.04-3.79-.1-.18-.22-.34-.33-.51-.44.23-.84.44-1.29.67-.26-.48-.49-.92-.75-1.4,1.42-.79,2.82-1.57,4.28-2.31Zm-8.92,6.47c.3-1.5,1.68-2.93,3.27-3.07.37.55.75,1.1,1.17,1.73-.2.02-.33.03-.46.04-.4,0-.78.05-1.14.25-.84.47-1.18,1.29-.9,2.18.27.86,1.1,1.46,1.96,1.36.83-.1,1.49-.63,1.69-1.44.03-.12.07-.23.12-.4.1.11.16.17.2.24.35.53.69,1.06,1.03,1.58-1.08,1.75-3.18,2.21-4.67,1.64-1.5-.58-2.6-2.43-2.26-4.1Zm-2.9.91c.3.38.6.78.93,1.2-.59.47-1.12.89-1.65,1.3.17.42.29.56.7.86.5-.39,1.01-.78,1.55-1.2.34.39.68.78,1.06,1.22-.32.23-.61.43-.88.64-.26.21-.51.44-.78.67.23.29.46.57.7.88.34-.12.59-.4.87-.61.28-.21.55-.43.87-.68.34.41.65.8,1.01,1.25-1.07.84-2.12,1.66-3.2,2.51-1.48-1.87-2.92-3.68-4.35-5.48.15-.28,2.74-2.37,3.16-2.56Zm-4.56,3.61c.39.37.77.71,1.01,1.14-.34.37-.66.71-.98,1.06.61.67,1.22,1.34,1.85,2.01.61.66,1.24,1.3,1.9,2-.48.45-.92.86-1.39,1.3-1.26-1.35-2.5-2.68-3.78-4.06-.4.38-.73.7-1,.94-.4-.35-.78-.68-1.2-1.05,1.2-1.11,2.38-2.21,3.59-3.33Zm-7.77,7.67c.8-1.19,1.92-1.88,3.21-1.85,1.52-.02,2.48.62,3.17,1.7.31.49.56,1,.63,1.59.08.59.02,1.17-.21,1.7-.66,1.55-1.76,2.57-3.5,2.73-1.03.09-1.93-.29-2.72-.94-1.48-1.22-1.64-3.35-.58-4.93Zm-6.11,8.3c.49-.71.97-1.42,1.48-2.12.33-.45.74-.81,1.28-.99.35-.11.69-.13,1.04-.02,1.03.31,1.89,1.11,1.68,2.38-.02.11-.02.22-.03.4,1.17.04,2.31-.17,3.53-.12-.18.36-.43.64-.64.94-.21.3-.42.6-.66.92-1.01-.05-2.02-.1-3.04-.15-.01.04-.02.08-.04.11.7.48,1.4.96,2.11,1.45-.38.53-.73,1.02-1.11,1.55-1.92-1.34-3.82-2.67-5.75-4.01.06-.14.09-.25.15-.34Zm2.22,10.18c-2.07-1.17-4.1-2.32-6.19-3.5.6-1.02,1.14-2.01,1.76-2.94.65-.97,1.75-1.2,2.8-.69.44.21.81.51,1.11.89.34.43.46.92.32,1.43-.12.44-.31.87-.5,1.29-.11.25-.26.49-.41.76.37.2.71.37,1.03.55.32.18.63.37,1,.58-.32.55-.62,1.08-.94,1.63Z"/>
    <path class="cls-3" d="m109.97,160.05c-.47-.42-.98-.44-1.51-.1-.45.3-.67.71-.63,1.25,0,.13,0,.25.02.38.08.69.57,1.3,1.14,1.43.63.14,1.34-.13,1.7-.68.09-.13.16-.31.15-.47-.06-.71-.32-1.34-.86-1.82Z"/>
    <path class="cls-3" d="m29.94,128.61c-.24-.12-.5-.14-.71.04-.23.2-.53.38-.47.75.05.31.19.61.39.91.52-.25,1.02-.5,1.53-.75-.16-.43-.36-.75-.73-.94Z"/>
    <path class="cls-3" d="m93.98,162.76c-.66.12-1.23.78-1.27,1.49.44.11,2.51.14,2.81.02-.03-.18-.05-.37-.09-.56-.15-.62-.82-1.05-1.45-.94Z"/>
    <path class="cls-3" d="m116.06,158.69c-.47-.4-1.12-.32-1.49.17-.2.26-.28.55-.27.87,0,.29.03.59.07.88.16,1.07.51,2.08,1.08,2.99.22.35.49.66.86.86.52.28,1.15.09,1.38-.45.12-.26.16-.56.24-.84-.06-1-.72-3.08-1.3-3.87-.16-.22-.37-.43-.58-.61Z"/>
    <path class="cls-3" d="m122.23,156.76c-.43-.29-.9-.34-1.36-.09-.43.24-.71.6-.69,1.13.02.69.29,1.27.82,1.69.72.59,2.06.13,2.33-.77.05-.15.03-.34-.02-.49-.21-.6-.56-1.1-1.09-1.47Z"/>
    <path class="cls-3" d="m154.63,60.51c-1.36.85-2.66,1.71-3.91,2.76.14.14.22.26.33.34.55.42,1.09.84,1.66,1.23.46.32.98.54,1.53.69.88.24,1.53-.09,1.96-.76.17-.26.23-.52.13-.84-.32-.98-.72-1.92-1.26-2.8-.13-.21-.29-.4-.45-.62Z"/>
    <path class="cls-3" d="m104.14,26.25c1.12-.28,2.25-.23,3.36-.03,1.94.35,3.87.74,5.79,1.19,2.54.59,5.04,1.34,7.48,2.24,2.14.79,4.24,1.69,6.29,2.69,1.52.74,3.01,1.53,4.48,2.38,2.31,1.34,4.52,2.83,6.64,4.45,2.77,2.13,5.38,4.42,7.76,6.98,1.61,1.73,3.14,3.51,4.56,5.39,1.4,1.86,2.7,3.79,3.91,5.78.61,1.01,1.2,2.04,1.77,3.08.46.85.88,1.73,1.28,2.62.14.33.15.71.22,1.07.02.13.03.27.05.46.64-.26,1.23-.47,1.8-.73,2.19-.98,4.36-1.99,6.43-3.2.91-.53,1.73-1.16,2.35-2.03.79-1.1.92-2.29.34-3.51-.36-.75-.77-1.47-1.2-2.19-1.21-2.05-2.46-4.08-3.82-6.03-1.26-1.8-2.57-3.57-3.97-5.26-1.67-2.02-3.44-3.96-5.29-5.82-1.73-1.73-3.52-3.38-5.4-4.94-1.72-1.44-3.51-2.79-5.34-4.08-1.9-1.34-3.85-2.61-5.87-3.78-3.28-1.91-6.67-3.61-10.2-5.01-1.49-.59-2.98-1.21-4.5-1.7-2.14-.69-4.3-1.34-6.49-1.88-2.25-.56-4.54-.98-6.82-1.43-.57-.11-1.15-.16-1.71.06-.91.36-1.64.92-2.12,1.79-.49.9-.82,1.85-.96,2.87-.19,1.38-.4,2.76-.58,4.14-.12.92-.23,1.85-.31,2.77-.04.54,0,1.09,0,1.65.01,0,.06.02.09.01Zm54.5,26.04c.44-1.11.89-2.22,1.33-3.33.03-.09.08-.17.14-.28.07.05.12.07.15.11.27.4.54.79.8,1.19.17.26.23.52.08.83-.22.45-.4.93-.59,1.4-.04.1-.07.21-.13.38.4,0,.75,0,1.1,0,.3,0,.6-.02.89.02.17.02.39.09.47.21.35.5.66,1.04,1.03,1.63-.34-.02-.61-.03-.89-.04-.44-.02-.87-.05-1.31-.07-.56-.03-1.13-.04-1.69-.09-.4-.03-.74.07-1.07.3-.71.48-1.44.94-2.16,1.4-.06.04-.12.06-.21.11-.33-.49-.66-.98-1.01-1.5.17-.12.28-.21.41-.29.72-.46,1.45-.93,2.18-1.38.25-.15.39-.35.49-.61Zm-3.48-9.98c1.04,1.27,2.05,2.5,3.1,3.78-.4.33-.78.64-1.2.98-.33-.42-.63-.78-.95-1.19-1.45,1.18-2.84,2.31-4.28,3.49-.38-.47-.76-.93-1.16-1.43,1.43-1.17,2.83-2.3,4.25-3.46-.32-.4-.62-.78-.96-1.2.41-.33.79-.64,1.2-.97Zm-3.82-4c.43.42.84.83,1.3,1.28-1.67,1.65-3.34,3.26-4.98,4.88-.34-.19-1.1-.97-1.28-1.34,1.63-1.59,3.28-3.19,4.96-4.82Zm-7.04-6.3c.2.17.39.33.58.49.53.44,1.07.88,1.59,1.33.22.19.41.42.58.67.58.86.44,1.61-.06,2.32-.48.69-1.32,1.12-2.21.86-.09-.03-.19-.04-.35-.08-.02.15-.06.3-.06.44-.03.89-.06,1.78-.09,2.66,0,.11-.02.22-.05.43-.62-.51-1.16-.95-1.74-1.44.14-1,.28-2.01.44-3.12-.41.31-.62.69-.9,1-.28.31-.55.64-.85.99-.48-.39-.93-.75-1.41-1.14,1.53-1.83,3.02-3.61,4.54-5.42Zm-11.42-1.61c.26-.56.6-1.09.92-1.61.51-.83,1.04-1.64,1.57-2.46.05-.08.12-.15.2-.25.51.32,1,.63,1.52.96-.23.36-.42.69-.63,1-.53.83-1.07,1.66-1.6,2.49-.12.19-.2.4-.27.62-.18.53.02,1.02.51,1.29.32.17.66.37,1.03.18.19-.1.41-.22.53-.39.41-.55.8-1.12,1.18-1.7.42-.64.81-1.29,1.21-1.94.04-.06.07-.12.12-.21.55.35,1.03.65,1.52.96,0,.05.02.1,0,.13-.84,1.29-1.67,2.58-2.52,3.86-.36.54-.85.9-1.48,1.05-.23.06-.48.1-.71.05-1.13-.24-2.12-.72-2.84-1.69-.55-.75-.65-1.53-.27-2.34Zm-5.64-7.32c1.53-.65,3.25-.29,4.4,1.15-.29.59-.57,1.17-.88,1.81-.12-.18-.2-.27-.26-.38-.37-.74-1.01-1.09-1.78-1.07-.78.02-1.37.43-1.7,1.19-.55,1.28.24,2.33,1.3,2.59.37.09.75.09,1.13,0,.06-.02.13-.02.23-.04-.3.65-.57,1.27-.85,1.87-1.55.09-3.25-1.03-3.78-2.93-.38-1.37.29-3.37,2.19-4.18Zm-7.91-4.09c1.28.38,2.53.79,3.81,1.29-.17.48-.33.92-.51,1.41-.69-.21-1.36-.41-2.05-.62-.14.36-.26.65-.4.99.15.08.27.17.4.21.37.13.75.23,1.13.35.14.04.28.1.47.17-.19.5-.36.95-.54,1.44-.66-.22-1.26-.41-1.91-.62-.16.38-.3.74-.46,1.14.71.23,1.38.45,2.09.69-.16.5-.32.98-.49,1.49-1.27-.43-2.51-.85-3.78-1.28.74-2.21,1.48-4.42,2.23-6.67Zm-9.27,2.8c.1.11.16.16.21.23.29.39.69.61,1.13.78.27.11.52.07.78-.04.36-.16.48-.6.23-.91-.1-.13-.25-.22-.39-.31-.3-.18-.62-.34-.91-.53-1.05-.66-1.34-1.32-.67-2.74.34-.73,1.01-1.09,1.81-1.14.84-.06,1.94.28,2.8,1.11-.29.38-.58.76-.9,1.18-.15-.11-.26-.21-.39-.29-.23-.14-.45-.29-.7-.38-.16-.06-.37-.08-.53-.02-.52.18-.59.61-.17.96.19.16.42.28.63.42.33.22.67.41.97.67.44.37.64.86.56,1.43-.17,1.23-.76,2.05-2.17,2.18-1.3.12-2.37-.43-3.37-1.32.39-.46.74-.86,1.1-1.27Z"/>
    <path class="cls-3" d="m145.35,35.87c.27-.32.3-.69.04-1.05-.15-.2-.33-.37-.55-.61-.24.29-.42.51-.61.74-.19.22-.38.44-.6.7.27.16.49.31.73.43.39.18.73.1.99-.2Z"/>
    <path class="cls-3" d="m104.67,30.43c.76.86,1.75,1.4,2.72,1.98.02.01.05,0,.12-.01.54-1.44.97-2.94,1.36-4.48-.4-.09-.75-.14-1.08-.24-.89-.28-1.8-.29-2.72-.25-.12,0-.27.01-.37.07-.66.39-1.19,1.31-.65,2.13.19.28.39.56.61.81Z"/>
    <path class="cls-3" d="m171.34,105.3c.35.02.66-.06.81-.4.12-.26.18-.55.29-.89-.66-.1-1.21-.25-1.81-.18-.04.35-.08.66.05.97.12.3.33.48.66.5Z"/>
    <path class="cls-3" d="m149.43,62.69c1.29-1.23,2.77-2.22,4.26-3.19.08-.05.15-.11.26-.2-.94-1.81-2.06-3.48-3.21-5.13-2.55-3.63-5.45-6.96-8.72-9.97-.25.29-5.64,10.88-6.47,12.6-2.05,4.24-4.14,8.46-6.24,12.73h18.1c-.12-.5-.26-.95-.34-1.42-.17-.94-.07-1.85.34-2.72.49-1.04,1.2-1.91,2.02-2.69Z"/>
    <path class="cls-3" d="m159.71,77.6c1.81-.46,3.6-1.03,5.45-1.38.16-.03.31-.09.51-.15-1.93-3.71-3.29-7.57-4.21-11.6-.12.03-.21.05-.28.08-1.02.44-2.04.9-3.07,1.32-.81.33-1.63.63-2.45.94-.43.17-.88.2-1.33.09-1-.23-1.93-.63-2.74-1.27-.59-.47-1.18-.96-1.78-1.44-.7.74-1.26,1.57-1.48,2.59-.06.27-.06.56-.01.83.1.57.26,1.12.4,1.68.02.08.07.15.11.24,3.87.01,7.73-.04,11.67-.01-2.31,4.04-4.58,7.99-6.87,11.99,1,.84,2.04,1.61,3.38,1.9.03-.11.06-.19.08-.27.26-1.24.5-2.48.77-3.72.06-.28.15-.59.33-.81.4-.49.9-.85,1.53-1.01Z"/>
    <path class="cls-3" d="m159.6,79.12c-.28.18-.46.39-.52.72-.15.82-.33,1.63-.49,2.44-.09.48-.16.97-.25,1.49,1.23.16,2.33.05,3.38-.46.41-.2.61-.54.6-.98-.02-1.04-.29-2-.92-2.84-.52-.7-1-.87-1.8-.37Z"/>
    <path class="cls-3" d="m141.3,43.67s.02-.07.03-.1c-.26-.23-.53-.45-.79-.68-1.7-1.48-3.47-2.89-5.33-4.17-1.89-1.31-3.84-2.53-5.86-3.63-2.3-1.25-4.66-2.4-7.1-3.37-1.53-.61-3.08-1.16-4.65-1.67-2.17-.71-4.39-1.25-6.61-1.75-.27-.06-.54-.07-.82-.11-.08.33-.14.6-.21.87-.46,1.85-.96,3.68-1.88,5.37-.41.75-.92,1.42-1.54,2-.62.59-1.35.99-2.21,1.07-1.31.11-2.62.25-3.92.24-2.92-.01-5.84-.09-8.76-.17-1.02-.03-2.02-.24-2.94-.69-1.84-.91-3.23-2.3-4.21-4.09-.77-1.41-1.17-2.9-.89-4.51,0-.04-.02-.08-.04-.17-9.98,2.09-19,6.22-27.09,12.4-1.06.81-3.47,2.85-3.57,3.11.02.01.04.04.07.04,1.17,0,2.34.02,3.51.02,4.11.01,8.21.03,12.32.03,17.91,0,35.82,0,53.73,0,6.12,0,12.25,0,18.37,0,.13,0,.26-.02.39-.03Z"/>
    <path class="cls-3" d="m39.8,59.46c.1.07.18.13.26.19.7.47,1.41.93,2.1,1.42,1.25.88,2.43,1.85,3.35,3.08,1.13,1.5,1.64,3.14.97,4.99-.04.11-.05.24-.08.36h18.12c-4.14-8.46-8.19-16.85-12.52-25.17-4.85,4.47-8.88,9.51-12.2,15.14Z"/>
    <path class="cls-3" d="m177.56,83.78c-.16-1.55-.43-3.1-.69-4.64-.26-1.5-1.28-2.29-2.67-2.68-.96-.26-1.94-.18-2.9-.05-1.3.18-2.59.42-3.87.69-1.53.32-3.05.7-4.57,1.05-.2.05-.4.1-.63.16.07.11.1.19.15.25.35.41.64.87.81,1.38.17.53.32,1.08.42,1.63.21,1.18.4,2.36.56,3.55.12.91.2,1.82.27,2.73.09,1.11.21,2.22.21,3.33.01,2.26-.02,4.51-.08,6.77-.03,1.14-.13,2.28-.27,3.41-.18,1.44-.41,2.87-.65,4.3-.35,2.16-.87,4.28-1.46,6.38-.6,2.14-1.3,4.26-2.13,6.33-.53,1.31-1.05,2.62-1.67,3.88-.82,1.68-1.71,3.34-2.6,4.98-.53.96-1.09,1.91-1.7,2.83-.88,1.33-1.79,2.64-2.72,3.93-.98,1.36-2.03,2.68-3.15,3.92-1.06,1.17-2.12,2.33-3.2,3.52.57.58,1.15,1.16,1.73,1.73,1.46,1.45,2.93,2.9,4.4,4.34.48.47.96.96,1.5,1.37,1.29.98,2.72.78,3.74-.47.15-.19.3-.37.46-.55,1.6-1.75,3.15-3.54,4.55-5.46,1.03-1.41,2.07-2.82,3.06-4.26,1.73-2.53,3.24-5.19,4.66-7.9,1.43-2.73,2.66-5.54,3.76-8.41.89-2.31,1.64-4.68,2.3-7.07.29-1.03.52-2.08.77-3.12.17-.71.37-1.42.5-2.14.26-1.41.5-2.83.71-4.25.21-1.45.42-2.9.56-4.36.15-1.57.28-3.15.32-4.73.05-2.03.07-4.07,0-6.1-.08-2.11-.26-4.22-.48-6.33Zm-10.38-1.14c.5.19.99.37,1.51.56-.06.13-.11.23-.15.33-.13.34-.27.68-.36,1.03-.08.3,0,.59.19.84.32.45.85.43,1.08-.06.13-.26.17-.56.24-.85.06-.23.11-.47.15-.7.15-1.03,1.01-1.42,1.86-1.44,1.15-.03,2.17.9,2.31,2.05.09.73.05,1.43-.19,2.12-.02.05-.05.1-.09.19-.5-.07-.95-.27-1.42-.47.09-.32.18-.6.23-.88.05-.31.02-.62-.2-.87-.31-.35-.73-.29-.89.15-.11.32-.16.65-.24.98-.06.26-.11.52-.19.78-.23.71-.79,1.13-1.54,1.16-.17,0-.34,0-.51,0-.77.01-1.33-.32-1.79-.94-.8-1.09-.59-3.11,0-3.98Zm-10.17,60.88c-.44-.33-.83-.63-1.25-.95.45-.57.87-1.12,1.32-1.7-.29-.25-.56-.48-.88-.75-.43.56-.85,1.11-1.28,1.66-.44-.33-.84-.61-1.27-.93.22-.28.43-.54.64-.8.21-.26.4-.54.64-.86-.34-.26-.65-.49-1-.75-.46.61-.89,1.16-1.33,1.73-.42-.33-.81-.63-1.22-.95.82-1.07,1.62-2.12,2.45-3.19,1.88,1.44,3.72,2.85,5.61,4.31-.83,1.09-1.63,2.12-2.44,3.18Zm5.5-8.09c-.57-.33-1.16-.68-1.73-1.01.34-.23.68-.41.97-.64.89-.71.8-2.17-.03-2.78-.27-.2-.57-.36-.87-.5-.84-.38-1.99.37-2.26,1.32-.12.41-.13.83,0,1.35-.65-.38-1.23-.71-1.8-1.04-.17-1.32,1.23-3,2.86-3.44,1.72-.46,3.56.5,4.28,2.27.61,1.51.1,3.45-1.41,4.47Zm5.2-9.54c-2.18-.93-4.31-1.85-6.49-2.78.25-.58.48-1.1.73-1.66,2.18.93,4.32,1.85,6.49,2.78-.24.56-.47,1.08-.73,1.66Zm4.13-11.6c-1.5.14-2.99.28-4.58.42.58.63,1.25.99,1.82,1.48.57.48,1.18.91,1.81,1.39-.2.62-.39,1.23-.61,1.89-1.98-1.62-3.94-3.23-5.92-4.85.13-.47.25-.91.38-1.36,1.27-.14,2.53-.27,3.79-.43,1.24-.15,2.47-.4,3.81-.39-.18.67-.34,1.23-.5,1.84Zm2.15-11.33c-.13.82-.27,1.64-.42,2.46-.12.65-.41,1.19-1,1.55-.82.51-2.62.32-3.05-1.08-.04-.12-.08-.24-.15-.46-1.03.58-2.01,1.14-3.05,1.73,0-.78.17-1.47.26-2.18.91-.56,1.95-.83,2.84-1.37,0-.03-.01-.06-.02-.09-.84-.1-1.69-.2-2.59-.3.04-.33.07-.61.1-.9.04-.29.08-.58.12-.91,2.31.31,4.62.63,6.98.95,0,.2,0,.41-.03.61Zm.41-6.39h-1.52v-2.22c-.39.02-.75.04-1.15.06v2.02c-.54.05-1.04.01-1.58.03v-2.07h-1.24c-.04.7,0,1.4,0,2.11h-1.47v-4c2.33.02,4.63.05,6.97.07.04,1.33,0,2.65,0,4Z"/>
    <path class="cls-3" d="m42.56,65.55c-.63.53-1.35.92-2.1,1.26-.98.43-1.95.45-2.95.02-1.33-.57-2.68-1.11-4.02-1.67-.37-.16-.74-.32-1.15-.5-.37,1.36-.69,2.69-1.11,4-.42,1.31-.91,2.61-1.43,3.88-.52,1.27-1.11,2.52-1.68,3.8.33.07.64.12.96.19.9.22,1.81.44,2.71.67.79.2,1.59.37,2.37.63.88.29,1.57.83,1.77,1.81.15.73.3,1.46.45,2.19.12.59.24,1.18.36,1.79,1.44-.35,2.58-1.11,3.6-2.16-.57-.99-1.15-1.97-1.72-2.95-.57-.99-1.13-1.98-1.7-2.97-.57-.99-1.16-1.96-1.71-2.96-.54-1-1.21-1.92-1.68-3.04h11.46c.73-1.97.68-3.31-1.05-5.09-.48.38-.94.73-1.38,1.1Z"/>
    <path class="cls-3" d="m144.09,140.4c.98-1.04,1.96-2.09,2.99-3.18-.98-.52-1.9-1-2.84-1.5-.05.07-.09.09-.1.13-.18.75-.39,1.5-.53,2.26-.11.58-.16,1.17-.02,1.76.06.27.17.47.51.53Z"/>
    <path class="cls-3" d="m146.37,144.71c-1.15-1.14-2.29-2.29-3.45-3.43-.44-.43-.65-.94-.67-1.55-.06-1.25.06-2.48.4-3.68.04-.13.06-.27.09-.4-.02-.01-.04-.03-.06-.04-.89.76-1.78,1.54-2.68,2.29-.91.76-1.82,1.52-2.75,2.25-.93.74-1.87,1.46-2.81,2.17-.95.71-1.9,1.42-2.86,2.11-.96.69-1.93,1.37-2.91,2.03-.98.66-1.99,1.28-2.99,1.92-.98.63-2,1.21-2.96,1.89.21.04.41.05.6.04,3.29-.05,6.57-.11,9.86-.16.54,0,.74.14.89.64.58,1.86,1.15,3.71,1.72,5.57.14.45.27.91.41,1.38.38.01.66-.18.95-.34,1.77-.96,3.39-2.14,4.95-3.39,2.01-1.6,3.97-3.26,5.94-4.9.5-.41.96-.86,1.46-1.3-.15-.15-.29-.27-.42-.4-.91-.91-1.81-1.81-2.72-2.72Z"/>
    <path class="cls-3" d="m28.3,77.73c-1.39-.3-2.79-.57-4.18-.83-1.19-.22-2.38-.43-3.61-.37-.89.04-1.68.32-2.42.8-.67.43-1.1,1.04-1.23,1.84-.06.36-.14.72-.19,1.08-.16,1.02-.33,2.03-.45,3.05-.12,1.05-.21,2.1-.28,3.16-.09,1.31-.22,2.62-.23,3.93-.02,2.38.01,4.77.08,7.15.04,1.37.14,2.73.29,4.09.17,1.57.42,3.13.65,4.69.37,2.54.93,5.04,1.58,7.52.56,2.13,1.21,4.22,1.94,6.3.64,1.84,1.37,3.64,2.14,5.42,1.17,2.71,2.51,5.33,3.96,7.9.41.73.82,1.45,1.28,2.14.89,1.37,1.78,2.74,2.72,4.08.91,1.29,1.84,2.57,2.82,3.81,1.05,1.33,2.16,2.61,3.26,3.89.49.56,1.01,1.1,1.57,1.59.49.43,1.11.63,1.77.49.7-.15,1.32-.49,1.83-1,1.07-1.05,2.14-2.08,3.21-3.13,1.27-1.26,2.54-2.53,3.8-3.8.06-.06.09-.13.17-.25-.15-.12-.31-.23-.43-.36-.88-.95-1.75-1.91-2.62-2.88-1.44-1.59-2.75-3.29-3.98-5.04-.92-1.31-1.81-2.65-2.65-4.02-.91-1.5-1.8-3.03-2.6-4.59-1.54-2.98-2.83-6.07-3.89-9.26-.68-2.03-1.26-4.09-1.73-6.18-.39-1.69-.69-3.39-.97-5.1-.21-1.31-.32-2.63-.45-3.95-.09-.93-.16-1.85-.2-2.78-.06-1.25-.09-2.51-.11-3.76,0-.68.04-1.35.06-2.03,0-.21,0-.42.02-.63.1-1.18.18-2.36.32-3.54.15-1.29.37-2.56.56-3.84.02-.14.03-.28.02-.42-.01-.21-.08-.42-.06-.62.16-1.24.45-2.44,1.27-3.44.06-.07.1-.16.17-.28-.1-.05-.15-.08-.2-.1-1-.24-1.99-.5-3-.71Zm-9.2,8.33c.91.1,1.77.2,2.7.31.11-.86.21-1.7.32-2.59-.88-.26-1.77-.25-2.69-.4.05-.59.1-1.15.15-1.78,2.36.27,4.69.53,7.03.79-.07.62-.13,1.18-.2,1.78-.95.02-1.87-.24-2.84-.23-.1.86-.2,1.7-.31,2.59.95.1,1.88.2,2.84.31-.07.62-.13,1.2-.2,1.84-2.34-.27-4.66-.55-7.04-.82.08-.62.15-1.19.23-1.8Zm-.37,5.27h1.54v1.51h5.48v1.89c-1.81-.03-3.61-.05-5.45-.08v1.51h-1.56v-4.83Zm1.28,13.8c-.19-.2-.37-.43-.5-.68-.68-1.29-.8-2.59-.07-3.91.26-.48.66-.79,1.15-1.1.31.56.6,1.07.9,1.6-.11.09-.2.16-.29.22-.88.65-.9,1.92-.03,2.58.88.66,2.58.71,3.51-.48.68-.87.19-2.27-.86-2.49-.05-.01-.11,0-.21.01.04.47.08.92.13,1.41-.48.11-.95.13-1.44.15-.13-1.22-.26-2.37-.39-3.53,2.28-.44,4.14.69,4.47,2.86.1.67.07,1.32-.1,1.97-.15.56-.43,1.03-.86,1.43-1.46,1.37-4.03,1.42-5.41-.04Zm2.02,11.82c-.16-.52-.31-1.05-.38-1.61-.01-.11.07-.24.15-.33.52-.68,1.05-1.36,1.58-2.04.48-.61.96-1.22,1.44-1.83.02-.03.03-.08.08-.22-1.41.37-2.75.71-4.13,1.07-.16-.62-.37-1.19-.38-1.81,2.26-.58,4.49-1.15,6.76-1.73.15.58.29,1.09.41,1.61.02.08-.03.19-.08.28-.08.15-.17.29-.28.42-.81,1.05-1.62,2.1-2.43,3.15-.15.19-.31.36-.45.58,1.37-.25,2.71-.62,4.09-.99.16.59.31,1.15.47,1.72-.29.19-6.31,1.73-6.85,1.74Zm16.76,21.78c.69-.43,1.42-.65,2.19-.21.4.23.79.5,1.12.82.25.25.42.59.59.92.25.49.37,1.02.49,1.62-.57.11-1.08.21-1.64.32-.01-.17,0-.31-.03-.44-.09-.36-.18-.73-.31-1.08-.11-.3-.38-.44-.66-.56-.28-.12-.49.05-.69.2-.19.14-.18.33-.11.53.12.3.23.6.34.91.1.29.2.59.29.88.18.58-.01,1.06-.41,1.47-1.11,1.15-2.77,1.04-3.69-.26-.32-.46-.55-.98-.8-1.48-.06-.12-.06-.27-.09-.42.51-.18.98-.33,1.52-.33.03.13.04.24.08.34.12.3.25.59.4.88.15.28.42.31.7.29.22-.02.37-.15.36-.39,0-.18-.03-.36-.08-.54-.14-.46-.31-.9-.43-1.37-.26-1.01.18-1.65.87-2.09Zm-1.65-5.86c.35.49.68.97,1.04,1.47-1.56,1.03-3.08,2.04-4.63,3.06.29.44.56.84.85,1.29-.45.27-.85.52-1.3.79-.91-1.35-1.79-2.66-2.69-4,.44-.31.84-.58,1.27-.89.28.41.54.8.83,1.23,1.6-.91,3.01-2.05,4.62-2.95Zm-3.81-6.71c-.5.89-1.02,1.8-1.54,2.71.01.02.03.04.04.07.76-.4,1.53-.8,2.32-1.21.29.55.56,1.07.85,1.64-2.13,1.08-4.19,2.17-6.3,3.24-.12-.25-.21-.44-.31-.62-.3-.57-.63-1.13-.89-1.72-.18-.41-.33-.84-.39-1.28-.14-.97.35-1.58,1.18-1.99.86-.42,1.69-.37,2.46.44.52-1.12,1.01-2.17,1.54-3.3.37.72.69,1.35,1.04,2.04Zm-3.44-8c.55,1.21.89,2.49,1.5,3.72-2.21.86-4.39,1.71-6.61,2.58-.5-1.29-.96-2.49-1.45-3.74.49-.2.95-.38,1.46-.59.26.71.51,1.36.77,2.08.36-.15.68-.28,1.05-.43-.24-.64-.47-1.24-.72-1.9.46-.19.91-.39,1.42-.6.25.63.5,1.25.77,1.91.38-.13.73-.26,1.13-.4-.12-.73-.64-1.32-.71-2.08.45-.18.89-.35,1.38-.55Z"/>
    <path class="cls-3" d="m34.66,80.03c-.11-.57-.54-.8-1.02-.95-.36-.11-.72-.04-.96.27-.27.34-.53.69-.76,1.06-.43.71-.39,1.51-.4,2.3,0,.42.17.64.52.82,1.04.57,2.17.51,3.39.48-.05-.29-.08-.52-.12-.75-.21-1.08-.43-2.15-.64-3.23Z"/>
    <path class="cls-2" d="m119.18,161.22c-.29-1.14-.73-2.22-1.57-3.09-.74-.76-1.63-1.08-2.69-.86-1.14.24-1.85.91-2.08,2.06-.06.32-.07.64-.11,1.08.07.4.11.92.24,1.42.3,1.19.81,2.27,1.7,3.15.87.86,1.9,1.03,3,.64,1.37-.48,1.78-1.56,1.75-2.96-.01-.49-.12-.98-.24-1.45Zm-1.48,2.8c-.24.54-.86.73-1.38.45-.37-.2-.64-.51-.86-.86-.58-.92-.92-1.92-1.08-2.99-.04-.29-.06-.59-.07-.88,0-.32.07-.61.27-.87.37-.49,1.02-.57,1.49-.17.21.18.41.39.58.61.58.79,1.24,2.87,1.3,3.87-.08.28-.12.58-.24.84Z"/>
    <path class="cls-2" d="m111.83,159.97c-.48-.77-1.16-1.26-2.07-1.4-1.12-.16-2.83.29-3.35,1.97-.15.5-.16.99-.07,1.5.17.99.7,1.71,1.63,2.05.98.36,1.94.25,2.77-.47.12-.11.24-.23.35-.34.03.02.05.03.08.05-.01.49-.14.95-.37,1.39-.58,1.11-1.64,1.46-2.8,1.67.09.42.17.8.28,1.28.57-.16,1.08-.25,1.57-.43,1.32-.49,2.26-1.36,2.62-2.77.18-.72.21-1.44.12-2.18-.1-.82-.31-1.61-.75-2.31Zm-1.15,2.37c-.35.55-1.07.82-1.7.68-.57-.13-1.06-.74-1.14-1.43-.01-.13-.01-.25-.02-.38-.03-.54.19-.96.63-1.25.52-.35,1.04-.32,1.51.1.54.48.8,1.11.86,1.82.01.15-.06.33-.15.47Z"/>
    <path class="cls-2" d="m124.26,156.67c-.85-1.07-1.93-1.58-3.31-1.27-2.09.47-2.67,2.39-2.03,3.91.41.98,1.16,1.64,2.27,1.72,1.09.08,2-.28,2.6-1.25.03-.05.1-.07.21-.15.12,1.09-.06,2.01-.9,2.69-.39.31-.86.52-1.3.77-.09.05-.2.09-.33.14.19.39.36.76.56,1.18.53-.25,1.03-.44,1.48-.72,1.3-.79,2.04-1.95,1.99-3.5-.04-1.29-.43-2.5-1.25-3.53Zm-.93,2.05c-.27.91-1.61,1.36-2.33.77-.53-.43-.8-1.01-.82-1.69-.02-.53.26-.89.69-1.13.46-.25.93-.2,1.36.09.53.36.88.87,1.09,1.47.05.15.07.34.02.49Z"/>
    <path class="cls-2" d="m73.5,159.33c-.3-.31-.65-.6-.91-.94-.41-.53-.32-.97.21-1.39.29-.22.61-.27.96-.22.63.09,1.18.38,1.67.77.12.09.23.19.36.3.29-.36.56-.7.83-1.03-.05-.08-.07-.14-.12-.17-1.18-.99-2.54-1.44-4.05-1.05-1.6.4-2.4,2.36-1.21,3.72.29.33.62.61.93.92.25.26.52.52.73.81.25.33.23.71.04,1.08-.28.53-.92.78-1.61.6-.84-.22-1.55-.65-2.14-1.32-.29.38-.58.74-.87,1.12.04.07.06.11.09.15.04.04.08.08.12.12.84.71,1.81,1.15,2.9,1.28.93.11,1.8-.05,2.53-.7.76-.68,1.23-2.09.38-3.17-.25-.32-.55-.6-.84-.89Z"/>
    <path class="cls-2" d="m83.85,160.65c-.85-.41-1.69-.33-2.51.13-.11.07-.23.14-.42.25.05-.35.09-.61.13-.9-.46-.09-.88-.18-1.32-.26-.51,2.09-1.02,4.15-1.53,6.22.53.11,1.02.21,1.56.32.05-.2.1-.34.13-.49.25-1.01.5-2.02.76-3.03.09-.35.23-.67.49-.92.43-.41,1.05-.52,1.57-.26.44.21.66.68.53,1.31-.16.81-.37,1.62-.56,2.43-.12.49-.25.97-.38,1.49.54.1,1.03.19,1.55.28.05-.17.11-.33.15-.49.23-.9.46-1.8.68-2.7.14-.56.25-1.13.22-1.71-.04-.75-.37-1.33-1.05-1.66Z"/>
    <path class="cls-2" d="m95.78,162.07c-1.26-.77-3.09-.41-3.95.79-.66.92-.87,1.95-.68,3.05.22,1.24,1.04,2.09,2.27,2.32.78.15,1.57.13,2.36-.02.24-.05.51-.02.71-.26-.05-.33-.11-.67-.17-1.01-.78.14-1.49.3-2.23.16-.88-.16-1.46-.79-1.44-1.65.69-.07,1.39.03,2.09.02.72,0,1.43.04,2.14.07.16-.6.15-1.27-.03-1.95-.17-.63-.49-1.17-1.06-1.52Zm-3.07,2.18c.04-.71.61-1.37,1.27-1.49.63-.11,1.3.32,1.45.94.04.19.06.38.09.56-.3.12-2.37.1-2.81-.02Z"/>
    <path class="cls-2" d="m89.72,162.66c.33.09.66.21,1.01.32.14-.36.29-.71.46-1.13-.15-.07-.27-.15-.4-.18-.41-.11-.81-.25-1.23-.29-1.05-.1-2.04.08-2.83.82-.91.85-1.2,1.94-1.08,3.16.1,1,.61,1.72,1.47,2.19,1,.54,2.08.5,3.2.35-.02-.23-.04-.43-.05-.62,0-.19,0-.38,0-.52-.43,0-.81.02-1.19,0-.93-.06-1.65-.66-1.8-1.51-.11-.61.02-1.18.33-1.71.43-.73,1.28-1.08,2.11-.86Z"/>
    <path class="cls-2" d="m100.48,160.67c.14.42.23.82.41,1.19.5-.3.95-.57,1.49-.9.27,2.41.49,4.72.74,7.06.54-.04,1.03-.08,1.53-.12-.29-2.86-.57-5.67-.86-8.46-1.34-.21-2.24.65-3.31,1.23Z"/>
    <path class="cls-2" d="m77.02,159.1c-.69,2.04-1.38,4.06-2.07,6.1.53.13,1.02.25,1.55.39.7-2.05,1.38-4.04,2.07-6.06-.53-.15-1.04-.29-1.55-.43Z"/>
    <path class="cls-2" d="m79.3,157.59c.01-.48-.35-.83-.85-.83-.59,0-.97.36-.98.92,0,.45.35.78.86.78.58,0,.96-.34.98-.87Z"/>
    <path class="cls-2" d="m141.18,38.56c.3-.35.57-.67.85-.99.28-.31.49-.69.9-1-.16,1.11-.3,2.12-.44,3.12.58.48,1.13.93,1.74,1.44.03-.21.05-.32.05-.43.03-.89.06-1.78.09-2.66,0-.14.04-.29.06-.44.16.03.25.05.35.08.89.26,1.73-.17,2.21-.86.5-.71.64-1.46.06-2.32-.16-.24-.36-.47-.58-.67-.52-.46-1.06-.89-1.59-1.33-.19-.16-.38-.32-.58-.49-1.52,1.81-3.01,3.59-4.54,5.42.48.39.93.76,1.41,1.14Zm3.05-3.62c.19-.22.38-.45.61-.74.22.24.4.41.55.61.26.36.23.73-.04,1.05-.26.31-.6.39-.99.2-.24-.11-.46-.27-.73-.43.22-.26.41-.47.6-.7Z"/>
    <path class="cls-2" d="m135.99,34.42c.22.05.48,0,.71-.05.63-.15,1.13-.52,1.48-1.05.85-1.28,1.68-2.57,2.52-3.86.02-.03,0-.08,0-.13-.48-.31-.97-.61-1.52-.96-.05.09-.08.15-.12.21-.4.65-.79,1.3-1.21,1.94-.38.58-.77,1.15-1.18,1.7-.13.17-.34.29-.53.39-.38.2-.71,0-1.03-.18-.49-.26-.69-.75-.51-1.29.07-.21.16-.43.27-.62.52-.84,1.06-1.66,1.6-2.49.2-.32.4-.64.63-1-.52-.33-1.01-.64-1.52-.96-.08.1-.15.17-.2.25-.52.82-1.05,1.63-1.57,2.46-.33.53-.66,1.05-.92,1.61-.38.82-.29,1.59.27,2.34.72.97,1.71,1.44,2.84,1.69Z"/>
    <path class="cls-2" d="m112.35,24.39c1.41-.13,2-.95,2.17-2.18.08-.57-.12-1.07-.56-1.43-.3-.25-.65-.45-.97-.67-.21-.14-.44-.26-.63-.42-.42-.35-.35-.77.17-.96.16-.06.37-.04.53.02.25.09.47.24.7.38.13.08.24.18.39.29.32-.42.61-.81.9-1.18-.85-.82-1.96-1.17-2.8-1.11-.8.06-1.46.41-1.81,1.14-.67,1.43-.38,2.08.67,2.74.3.19.61.35.91.53.14.09.29.18.39.31.25.31.14.75-.23.91-.25.11-.51.14-.78.04-.44-.17-.84-.39-1.13-.78-.05-.07-.11-.12-.21-.23-.36.42-.7.82-1.1,1.27,1,.89,2.07,1.44,3.37,1.32Z"/>
    <path class="cls-2" d="m121.38,25.45c-.72-.24-1.38-.45-2.09-.69.16-.4.31-.76.46-1.14.65.21,1.24.41,1.91.62.18-.49.36-.94.54-1.44-.19-.07-.33-.13-.47-.17-.38-.12-.76-.22-1.13-.35-.14-.05-.26-.14-.4-.21.14-.34.25-.64.4-.99.7.21,1.36.41,2.05.62.18-.49.34-.93.51-1.41-1.28-.5-2.52-.91-3.81-1.29-.75,2.25-1.49,4.46-2.23,6.67,1.27.43,2.51.85,3.78,1.28.17-.52.32-.99.49-1.49Z"/>
    <path class="cls-2" d="m128.83,30.19c.27-.61.55-1.22.85-1.87-.1.02-.16.03-.23.04-.38.1-.76.1-1.13,0-1.06-.26-1.85-1.31-1.3-2.59.33-.76.92-1.17,1.7-1.19.77-.02,1.42.33,1.78,1.07.05.11.13.2.26.38.32-.65.6-1.22.88-1.81-1.15-1.44-2.87-1.8-4.4-1.15-1.9.81-2.57,2.81-2.19,4.18.52,1.9,2.22,3.02,3.78,2.93Z"/>
    <path class="cls-2" d="m155.98,54.28c-.13.08-.24.17-.41.29.35.52.68,1,1.01,1.5.09-.04.16-.07.21-.11.72-.46,1.45-.92,2.16-1.4.33-.23.67-.33,1.07-.3.56.04,1.13.06,1.69.09.44.02.87.05,1.31.07.27.01.55.03.89.04-.37-.6-.68-1.13-1.03-1.63-.09-.12-.31-.19-.47-.21-.29-.04-.59-.02-.89-.02-.35,0-.7,0-1.1,0,.06-.18.09-.28.13-.38.19-.47.37-.95.59-1.4.15-.31.1-.57-.08-.83-.26-.4-.53-.8-.8-1.19-.03-.04-.08-.06-.15-.11-.05.11-.1.19-.14.28-.45,1.11-.89,2.22-1.33,3.33-.1.26-.24.46-.49.61-.73.45-1.45.92-2.18,1.38Z"/>
    <path class="cls-2" d="m150.67,47.94c.4.5.78.96,1.16,1.43,1.44-1.17,2.83-2.31,4.28-3.49.33.41.62.77.95,1.19.42-.34.8-.66,1.2-.98-1.05-1.28-2.06-2.51-3.1-3.78-.41.33-.79.64-1.2.97.34.43.64.81.96,1.2-1.43,1.16-2.82,2.29-4.25,3.46Z"/>
    <path class="cls-2" d="m147.67,44.47c1.65-1.62,3.31-3.23,4.98-4.88-.46-.46-.88-.87-1.3-1.28-1.69,1.64-3.33,3.24-4.96,4.82.18.37.94,1.15,1.28,1.34Z"/>
    <path class="cls-2" d="m166.9,102.31c-.04.29-.07.58-.1.9.9.1,1.74.2,2.59.3,0,.03.01.06.02.09-.89.54-1.93.81-2.84,1.37-.09.7-.26,1.4-.26,2.18,1.04-.59,2.02-1.14,3.05-1.73.07.22.11.34.15.46.44,1.4,2.23,1.58,3.05,1.08.59-.36.88-.9,1-1.55.15-.82.29-1.64.42-2.46.03-.2.02-.41.03-.61-2.36-.32-4.67-.63-6.98-.95-.04.32-.08.62-.12.91Zm3.72,1.52c.6-.06,1.15.08,1.81.18-.11.34-.17.63-.29.89-.15.33-.47.41-.81.4-.33-.02-.54-.2-.66-.5-.13-.31-.09-.63-.05-.97Z"/>
    <path class="cls-2" d="m164.74,113.27c-.13.45-.25.88-.38,1.36,1.98,1.62,3.94,3.23,5.92,4.85.21-.66.41-1.27.61-1.89-.63-.48-1.24-.91-1.81-1.39-.57-.49-1.24-.85-1.82-1.48,1.59-.15,3.08-.29,4.58-.42.17-.61.32-1.17.5-1.84-1.34,0-2.57.24-3.81.39-1.26.15-2.51.28-3.79.43Z"/>
    <path class="cls-2" d="m168.96,87.56c.17,0,.34,0,.51,0,.75-.03,1.31-.45,1.54-1.16.08-.25.13-.52.19-.78.08-.33.13-.67.24-.98.15-.44.58-.51.89-.15.22.25.26.56.2.87-.05.29-.15.56-.23.88.47.2.93.4,1.42.47.04-.09.07-.13.09-.19.24-.69.28-1.4.19-2.12-.14-1.15-1.16-2.08-2.31-2.05-.85.02-1.7.42-1.86,1.44-.04.24-.09.47-.15.7-.07.29-.12.59-.24.85-.24.49-.76.51-1.08.06-.18-.25-.26-.55-.19-.84.09-.35.24-.69.36-1.03.04-.1.09-.2.15-.33-.52-.19-1-.37-1.51-.56-.6.87-.8,2.89,0,3.98.45.62,1.02.95,1.79.94Z"/>
    <path class="cls-2" d="m151.39,139.22c.42.32.8.62,1.22.95.44-.58.86-1.13,1.33-1.73.35.26.66.49,1,.75-.24.32-.44.59-.64.86-.2.26-.42.52-.64.8.43.32.82.6,1.27.93.42-.55.84-1.1,1.28-1.66.31.27.58.5.88.75-.45.58-.88,1.13-1.32,1.7.43.32.82.62,1.25.95.81-1.06,1.61-2.1,2.44-3.18-1.89-1.45-3.73-2.87-5.61-4.31-.82,1.07-1.63,2.13-2.45,3.19Z"/>
    <path class="cls-2" d="m167.42,92.49v4h1.47c.01-.72-.03-1.41,0-2.11h1.24v2.07c.55-.02,1.05.02,1.58-.03v-2.02c.4-.02.75-.04,1.15-.06v2.22h1.52c.01-1.35.04-2.67,0-4-2.35-.03-4.64-.05-6.97-.07Z"/>
    <path class="cls-2" d="m159.63,128.69c-1.63.43-3.03,2.12-2.86,3.44.58.33,1.15.66,1.8,1.04-.13-.52-.12-.93,0-1.35.27-.95,1.41-1.7,2.26-1.32.31.14.6.3.87.5.83.6.92,2.07.03,2.78-.29.23-.62.41-.97.64.57.33,1.16.67,1.73,1.01,1.51-1.02,2.02-2.96,1.41-4.47-.72-1.76-2.56-2.72-4.28-2.27Z"/>
    <path class="cls-2" d="m161.21,123.11c2.18.93,4.31,1.85,6.49,2.78.26-.58.48-1.1.73-1.66-2.18-.93-4.32-1.85-6.49-2.78-.24.56-.47,1.08-.73,1.66Z"/>
    <path class="cls-2" d="m28.41,113.48c-1.38.37-2.72.74-4.09.99.14-.22.3-.39.45-.58.81-1.05,1.62-2.1,2.43-3.15.1-.13.2-.28.28-.42.05-.08.09-.19.08-.28-.12-.52-.26-1.03-.41-1.61-2.27.58-4.5,1.15-6.76,1.73.02.62.22,1.19.38,1.81,1.38-.36,2.72-.7,4.13-1.07-.05.14-.05.19-.08.22-.48.61-.96,1.22-1.44,1.83-.53.68-1.06,1.36-1.58,2.04-.07.1-.16.23-.15.33.06.56.22,1.09.38,1.61.54,0,6.56-1.55,6.85-1.74-.15-.57-.31-1.13-.47-1.72Z"/>
    <path class="cls-2" d="m25.42,105.17c.42-.4.71-.87.86-1.43.17-.65.2-1.3.1-1.97-.33-2.17-2.19-3.3-4.47-2.86.13,1.16.25,2.31.39,3.53.49-.02.96-.03,1.44-.15-.04-.49-.09-.94-.13-1.41.1,0,.16-.02.21-.01,1.05.22,1.54,1.62.86,2.49-.93,1.19-2.63,1.14-3.51.48-.87-.65-.86-1.93.03-2.58.09-.07.17-.13.29-.22-.3-.53-.58-1.04-.9-1.6-.48.31-.88.62-1.15,1.1-.73,1.32-.61,2.62.07,3.91.13.25.31.47.5.68,1.38,1.47,3.95,1.41,5.41.04Z"/>
    <path class="cls-2" d="m26.11,86.85c-.97-.11-1.89-.21-2.84-.31.1-.89.2-1.74.31-2.59.97-.01,1.89.25,2.84.23.07-.6.13-1.16.2-1.78-2.34-.26-4.66-.53-7.03-.79-.05.63-.1,1.19-.15,1.78.92.15,1.81.14,2.69.4-.11.88-.21,1.73-.32,2.59-.93-.11-1.79-.2-2.7-.31-.08.61-.15,1.18-.23,1.8,2.38.28,4.69.55,7.04.82.07-.64.13-1.22.2-1.84Z"/>
    <path class="cls-2" d="m28.29,126.97c-.83.41-1.32,1.02-1.18,1.99.06.44.21.88.39,1.28.26.59.59,1.15.89,1.72.1.18.18.37.31.62,2.12-1.07,4.17-2.16,6.3-3.24-.29-.57-.56-1.08-.85-1.64-.79.41-1.56.81-2.32,1.21-.01-.02-.03-.04-.04-.07.52-.91,1.03-1.82,1.54-2.71-.35-.68-.67-1.32-1.04-2.04-.53,1.13-1.02,2.18-1.54,3.3-.77-.81-1.6-.87-2.46-.44Zm.85,3.33c-.2-.3-.33-.6-.39-.91-.06-.36.24-.55.47-.75.22-.18.47-.16.71-.04.37.19.58.51.73.94-.51.25-1.01.5-1.53.75Z"/>
    <path class="cls-2" d="m37.92,140.81c.12.46.29.91.43,1.37.05.17.08.36.08.54,0,.24-.14.37-.36.39-.28.03-.55-.01-.7-.29-.15-.28-.27-.58-.4-.88-.04-.1-.05-.21-.08-.34-.54,0-1.01.15-1.52.33.03.15.03.3.09.42.25.5.48,1.03.8,1.48.92,1.3,2.58,1.41,3.69.26.4-.41.59-.89.41-1.47-.09-.29-.19-.59-.29-.88-.11-.3-.23-.61-.34-.91-.08-.2-.08-.4.11-.53.2-.15.41-.32.69-.2.28.12.55.27.66.56.13.35.22.72.31,1.08.03.13.02.26.03.44.57-.11,1.07-.21,1.64-.32-.12-.6-.24-1.13-.49-1.62-.16-.32-.33-.67-.59-.92-.33-.32-.72-.59-1.12-.82-.76-.44-1.49-.23-2.19.21-.7.44-1.13,1.08-.87,2.09Z"/>
    <path class="cls-2" d="m29.22,120.78c-.4.14-.75.26-1.13.4-.26-.66-.51-1.28-.77-1.91-.51.21-.97.41-1.42.6.25.66.48,1.26.72,1.9-.37.15-.68.28-1.05.43-.27-.71-.51-1.37-.77-2.08-.51.2-.97.39-1.46.59.48,1.25.95,2.45,1.45,3.74,2.22-.87,4.4-1.71,6.61-2.58-.6-1.23-.95-2.52-1.5-3.72-.49.2-.93.37-1.38.55.07.76.58,1.35.71,2.08Z"/>
    <path class="cls-2" d="m20.29,94.65c1.84.03,3.64.05,5.45.08v-1.89h-5.48v-1.51h-1.54v4.83h1.56v-1.51Z"/>
    <path class="cls-2" d="m31.69,134.58c-.43.3-.84.58-1.27.89.9,1.34,1.78,2.65,2.69,4,.45-.27.85-.52,1.3-.79-.3-.45-.56-.85-.85-1.29,1.55-1.02,3.07-2.03,4.63-3.06-.35-.5-.69-.98-1.04-1.47-1.61.9-3.02,2.04-4.62,2.95-.29-.43-.55-.82-.83-1.23Z"/>
    <path class="cls-2" d="m79.71,24.68c-.3-1.4-.59-2.76-.89-4.16.1.05.13.05.15.07,1.21,1.01,2.43,2.02,3.63,3.04.2.17.4.27.65.23.51-.09,1.02-.18,1.57-.28-.51-2.31-1.02-4.58-1.54-6.91-.6.11-1.16.22-1.79.34.18,1.42.64,2.72.86,4.17-.53-.43-.97-.79-1.42-1.15-.82-.67-1.63-1.34-2.46-2.01-.12-.09-.27-.21-.4-.2-.58.05-1.16.18-1.74.37.62,2.29.96,4.6,1.57,6.86.63-.13,1.2-.25,1.79-.37Z"/>
    <path class="cls-2" d="m71.58,27.18c1.54.08,2.75-.78,3.38-1.6,1.03-1.32.98-3.6-.35-4.89-1.1-1.06-2.45-1.36-3.92-.91-1.66.52-3.12,2.06-2.8,4.26.22,1.55,1.83,3.28,3.68,3.14Zm.25-5.72c.98,0,1.89.59,1.9,1.93.01,1.18-.82,1.87-1.96,1.95-1.25-.07-1.95-.85-1.97-1.91-.02-1.05.71-1.97,2.03-1.98Z"/>
    <path class="cls-2" d="m38.26,47.35c.79.65,1.69,1.03,2.72.94,1.74-.16,2.84-1.18,3.5-2.73.22-.53.28-1.11.21-1.7-.08-.59-.32-1.11-.63-1.59-.69-1.08-1.65-1.71-3.17-1.7-1.29-.03-2.4.66-3.21,1.85-1.06,1.58-.91,3.71.58,4.93Zm2.68-4.86c1.08-.01,1.82.83,1.87,1.94.05,1.02-.94,1.95-1.95,1.94-1.13-.02-1.95-.82-1.95-1.9,0-1.14.87-1.98,2.03-1.98Z"/>
    <path class="cls-2" d="m38.29,53.52c-.72-.49-1.42-.97-2.11-1.45.01-.04.02-.08.04-.11,1.02.05,2.03.1,3.04.15.23-.33.45-.62.66-.92.21-.3.46-.58.64-.94-1.22-.06-2.36.16-3.53.12.02-.18.02-.29.03-.4.21-1.26-.65-2.07-1.68-2.38-.35-.11-.69-.09-1.04.02-.55.18-.95.55-1.28.99-.51.69-.99,1.41-1.48,2.12-.06.09-.09.2-.15.34,1.92,1.34,3.82,2.67,5.75,4.01.38-.53.73-1.01,1.11-1.55Zm-2.86-3c-.08.25-.22.48-.35.76-.49-.34-.93-.65-1.45-1.01.21-.24.35-.43.52-.59.3-.26.67-.29.98-.09.33.22.44.51.31.92Z"/>
    <path class="cls-2" d="m32.7,58.14c.15-.27.3-.51.41-.76.18-.42.38-.85.5-1.29.14-.51.01-1-.32-1.43-.3-.38-.68-.68-1.11-.89-1.05-.52-2.15-.29-2.8.69-.62.93-1.16,1.93-1.76,2.94,2.09,1.18,4.12,2.33,6.19,3.5.32-.55.62-1.08.94-1.63-.37-.21-.68-.4-1-.58-.33-.18-.66-.35-1.03-.55Zm-.97-1.49c-.11.21-.21.42-.35.72-.53-.29-1-.56-1.53-.86.25-.35.47-.68.72-.99.14-.17.35-.19.58-.12.49.17.91.62.58,1.24Z"/>
    <path class="cls-2" d="m54.41,36.67c-.36-.45-.68-.84-1.01-1.25-.32.25-.59.48-.87.68-.29.21-.53.49-.87.61-.24-.31-.47-.59-.7-.88.27-.23.52-.46.78-.67.27-.21.55-.41.88-.64-.38-.44-.72-.83-1.06-1.22-.54.42-1.05.81-1.55,1.2-.41-.3-.52-.43-.7-.86.52-.41,1.06-.84,1.65-1.3-.33-.43-.63-.82-.93-1.2-.41.18-3.01,2.27-3.16,2.56,1.43,1.8,2.87,3.62,4.35,5.48,1.08-.85,2.13-1.67,3.2-2.51Z"/>
    <path class="cls-2" d="m55.18,34.34c1.49.57,3.59.11,4.67-1.64-.34-.52-.68-1.05-1.03-1.58-.04-.07-.1-.12-.2-.24-.05.17-.09.29-.12.4-.2.81-.86,1.34-1.69,1.44-.86.1-1.69-.5-1.96-1.36-.28-.89.06-1.71.9-2.18.36-.2.74-.24,1.14-.25.13,0,.26-.02.46-.04-.43-.63-.8-1.18-1.17-1.73-1.59.14-2.97,1.57-3.27,3.07-.34,1.67.76,3.53,2.26,4.1Z"/>
    <path class="cls-2" d="m59.59,26.8c.11.16.24.33.33.51.68,1.26,1.36,2.53,2.04,3.79.09.17.2.32.31.49.58-.33,1.09-.63,1.63-.93-.87-1.6-1.73-3.18-2.6-4.77.45-.26.86-.5,1.29-.75-.23-.49-.43-.93-.76-1.37-1.46.75-2.87,1.53-4.28,2.31.26.48.49.92.75,1.4.45-.23.85-.44,1.29-.67Z"/>
    <path class="cls-2" d="m44.06,38.2c1.28,1.37,2.52,2.71,3.78,4.06.47-.44.9-.85,1.39-1.3-.66-.7-1.29-1.34-1.9-2-.62-.67-1.23-1.34-1.85-2.01.33-.35.64-.69.98-1.06-.24-.43-.61-.77-1.01-1.14-1.21,1.13-2.39,2.22-3.59,3.33.42.37.79.7,1.2,1.05.26-.25.6-.57,1-.94Z"/>
    <path class="cls-2" d="m67.98,28.71c-.02-.13,0-.23-.04-.32-.94-2.04-1.88-4.08-2.84-6.16-.59.26-1.13.5-1.73.77,1,2.17,1.98,4.3,2.97,6.45.57-.26,1.1-.5,1.64-.75Z"/>
    <path class="cls-2" d="m179.34,89.66c-.1-.81-.06-1.63-.11-2.45-.05-.77-.11-1.55-.19-2.32-.09-.85-.18-1.71-.3-2.56-.16-1.16-.3-2.32-.53-3.47-.34-1.75-1.43-2.9-3.08-3.52-.72-.27-1.47-.39-2.24-.4-1.59-.01-3.13.34-4.69.58-.37.06-.74.15-1.08.22-1.3-1.67-4.21-9.65-4.31-11.87.11-.06.23-.13.35-.19,1.21-.64,2.42-1.27,3.62-1.93.96-.53,1.8-1.23,2.46-2.1,1.2-1.58,1.46-3.31.62-5.12-.44-.94-.99-1.84-1.5-2.74-1.16-2.04-2.42-4.01-3.79-5.91-1.22-1.7-2.48-3.36-3.78-4.99-1.06-1.32-2.2-2.57-3.34-3.83-1.7-1.88-3.52-3.62-5.39-5.32-.98-.89-2.02-1.71-3.04-2.57-2.29-1.92-4.74-3.65-7.24-5.28-2.59-1.69-5.28-3.2-8.04-4.59-2.13-1.07-4.3-2.04-6.52-2.92-2.38-.94-4.81-1.78-7.27-2.48-1.34-.38-2.68-.77-4.04-1.07-1.95-.43-3.92-.79-5.88-1.17-.95-.19-1.88-.14-2.78.24-1.74.73-2.7,2.13-3.24,3.85-.43,1.37-.59,2.81-.79,4.23-.06.45-.08.92-.28,1.4-4.19.49-8.37.43-12.57-.18-.08-.55-.13-1.02-.21-1.5-.2-1.28-.38-2.56-.77-3.81-.54-1.72-1.5-3.09-3.19-3.84-.68-.3-1.39-.48-2.14-.41-.35.03-.7.09-1.04.17-1.9.39-3.82.74-5.7,1.21-3.2.79-6.35,1.76-9.44,2.93-2.78,1.05-5.52,2.22-8.16,3.6-1.73.9-3.42,1.86-5.11,2.81-1.72.97-3.37,2.06-4.98,3.21-1.16.83-2.31,1.66-3.44,2.54-1.21.95-2.39,1.93-3.57,2.92-.52.43-1.02.89-1.5,1.36-1.47,1.42-2.98,2.81-4.38,4.29-1.43,1.52-2.77,3.12-4.13,4.71-1.38,1.62-2.64,3.35-3.85,5.1-1.69,2.45-3.22,5-4.67,7.6-.59,1.06-.87,2.15-.65,3.37.14.76.36,1.48.82,2.11.67.91,1.47,1.68,2.47,2.22,1.22.67,2.46,1.32,3.69,1.98.16.09.32.18.45.25.26,1.49-2.83,10.16-4.24,11.96-.12-.01-.26-.02-.39-.04-.86-.17-1.71-.36-2.57-.5-1.18-.2-2.37-.36-3.58-.23-1.03.11-1.99.41-2.82,1.04-.96.74-1.64,1.66-1.81,2.89-.08.59-.19,1.17-.27,1.75-.13.98-.27,1.95-.37,2.93-.11,1.07-.19,2.13-.27,3.2-.09,1.29-.22,2.59-.23,3.88-.02,2.12.03,4.23.08,6.35.02.96.1,1.92.18,2.87.11,1.18.26,2.35.39,3.53.18,1.65.45,3.29.75,4.93.41,2.15.89,4.27,1.46,6.38.63,2.33,1.36,4.62,2.21,6.87.93,2.47,1.94,4.9,3.11,7.26,1.01,2.03,2.07,4.04,3.22,5.99,1.24,2.1,2.57,4.14,4,6.12,1.36,1.89,2.78,3.73,4.3,5.49.9,1.03,1.8,2.06,2.77,3.03.9.9,2.03,1.33,3.32,1.05.96-.2,1.78-.7,2.49-1.38.16-.15.32-.31.5-.47.11.09.2.16.28.23,1.2,1.04,2.39,2.11,3.62,3.13,2.2,1.83,4.45,3.6,6.85,5.18.76.5,1.57.95,2.38,1.38.34.19.73.3,1.1.42.22.07.46.07.67.1.89-2.54,1.76-5.02,2.65-7.53.2,0,.38,0,.56,0,1.03.02,2.06.04,3.09.05,2.33.03,4.66.06,6.99.1.52,0,1.04.06,1.56.07.37,0,.73,0,1.1-.02.3-.02.42-.26.51-.5.09-.24,0-.45-.2-.6-.22-.17-.45-.34-.69-.48-.34-.2-.71-.35-1.05-.55-2.44-1.39-4.83-2.85-7.15-4.44-1.81-1.25-3.6-2.53-5.38-3.83-1-.73-1.98-1.49-2.95-2.27-1.16-.92-2.3-1.86-3.43-2.82-.95-.8-1.88-1.63-2.8-2.45-.39-.34-.58-.38-1.05-.13-1.1.58-2.19,1.16-3.29,1.74-.21.11-.42.21-.61.31-.06-.04-.09-.05-.11-.07-1.55-1.87-2.98-3.82-4.32-5.85-1.61-2.44-3.03-4.98-4.32-7.61-1.11-2.27-2.07-4.6-2.9-6.98-1.12-3.22-2.03-6.51-2.6-9.88-.26-1.54-.53-3.08-.7-4.64-.18-1.62-.29-3.26-.33-4.89-.05-1.72.02-3.44.03-5.16.01-1.58.22-3.15.44-4.71.07-.47.15-.93.23-1.43.15.05.25.07.35.11,1.26.53,2.58.59,3.91.43,1.96-.24,3.67-1.06,5.14-2.37.1-.09.21-.16.35-.27.32.57.6,1.08.9,1.59,1.01,1.76,2.02,3.52,3.03,5.28.42.73.83,1.47,1.25,2.21.95,1.66,1.92,3.32,2.87,4.98,1.24,2.16,2.47,4.33,3.7,6.5,1.01,1.76,2.03,3.52,3.03,5.28.61,1.08,1.2,2.17,1.81,3.25,1.33,2.37,2.66,4.75,3.99,7.12.97,1.73,1.95,3.46,2.92,5.2,1.67,3,3.34,6.01,5.01,9.01.93,1.66,1.87,3.31,2.79,4.98,1.09,1.96,2.16,3.93,3.24,5.89,1.16,2.1,2.33,4.19,3.49,6.28.11.19.23.38.34.55h35.15c.08-.13.16-.25.22-.37.44-.79.88-1.58,1.32-2.37.98-1.75,1.96-3.49,2.93-5.24.49-.87.96-1.76,1.45-2.63,1.33-2.38,2.66-4.74,3.99-7.12,1.03-1.85,2.04-3.7,3.07-5.55,1.49-2.67,2.99-5.34,4.48-8.01,1.96-3.51,3.9-7.02,5.87-10.52,1.31-2.33,2.67-4.65,4-6.97,1.11-1.93,2.21-3.87,3.32-5.8,1.5-2.62,3-5.24,4.5-7.86,1-1.75,2-3.5,3-5.25.07-.13.17-.24.26-.37.09.06.14.08.18.12,1.92,1.64,4.12,2.45,6.65,2.35.91-.04,1.8-.16,2.6-.65.09-.05.2-.06.29-.09.03.06.06.09.06.11.13,1.06.27,2.12.38,3.19.22,2.08.32,4.16.3,6.25-.01,1.55-.09,3.1-.23,4.65-.16,1.81-.36,3.62-.63,5.41-.24,1.6-.55,3.19-.94,4.76-.62,2.56-1.35,5.09-2.25,7.57-.62,1.7-1.29,3.37-2.06,5-1.35,2.89-2.88,5.68-4.63,8.35-1.28,1.95-2.65,3.82-4.09,5.66-.15.2-.34.37-.53.56-.18-.09-.35-.17-.51-.26-1.27-.68-2.53-1.36-3.8-2.03-.51-.27-.82-.19-1.22.18-.66.61-1.32,1.23-2.01,1.81-1.71,1.43-3.4,2.88-5.16,4.25-1.72,1.34-3.5,2.62-5.29,3.88-1.57,1.1-3.16,2.17-4.77,3.21-1.85,1.19-3.73,2.33-5.69,3.33-.09.04-.17.1-.25.15-.18.11-.27.28-.29.49-.05.55.31.86.96.82.82-.04,1.63-.1,2.45-.12,2.31-.05,4.63-.08,6.94-.12.97-.02,1.95-.03,2.92-.04.16,0,.33,0,.49,0,.9,2.56,1.77,5.07,2.66,7.6.55-.06,1.03-.2,1.48-.43.78-.4,1.56-.8,2.29-1.27,1.79-1.16,3.52-2.39,5.2-3.7,1.95-1.52,3.87-3.07,5.73-4.69.08-.07.18-.12.29-.2.2.18.39.35.57.52.7.68,1.5,1.23,2.45,1.45,1.52.36,2.79-.18,3.8-1.3,1.08-1.19,2.11-2.42,3.15-3.65,1.75-2.07,3.36-4.25,4.88-6.49,1.26-1.85,2.45-3.75,3.53-5.72.76-1.4,1.51-2.81,2.23-4.23.44-.87.84-1.76,1.22-2.65.63-1.46,1.28-2.92,1.84-4.41.57-1.5,1.05-3.04,1.56-4.56.77-2.3,1.34-4.66,1.87-7.02.31-1.39.58-2.79.8-4.19.22-1.38.37-2.76.54-4.15.21-1.75.37-3.51.41-5.27.02-.7.14-1.4.14-2.11,0-1.8.09-3.61-.13-5.41ZM104.06,24.59c.07-.93.19-1.85.31-2.77.18-1.38.39-2.76.58-4.14.14-1.02.47-1.97.96-2.87.48-.87,1.21-1.43,2.12-1.79.56-.22,1.15-.18,1.71-.06,2.28.46,4.57.87,6.82,1.43,2.18.54,4.35,1.19,6.49,1.88,1.53.49,3.01,1.11,4.5,1.7,3.53,1.4,6.92,3.11,10.2,5.01,2.01,1.17,3.96,2.44,5.87,3.78,1.83,1.29,3.62,2.65,5.34,4.08,1.87,1.56,3.67,3.22,5.4,4.94,1.86,1.86,3.62,3.8,5.29,5.82,1.4,1.7,2.71,3.46,3.97,5.26,1.37,1.95,2.61,3.98,3.82,6.03.42.71.84,1.44,1.2,2.19.58,1.22.45,2.41-.34,3.51-.62.87-1.45,1.5-2.35,2.03-2.07,1.21-4.25,2.22-6.43,3.2-.57.26-1.17.47-1.8.73-.02-.19-.02-.33-.05-.46-.06-.36-.07-.74-.22-1.07-.39-.89-.82-1.76-1.28-2.62-.56-1.04-1.15-2.07-1.77-3.08-1.2-1.99-2.5-3.92-3.91-5.78-1.42-1.88-2.95-3.67-4.56-5.39-2.38-2.56-4.99-4.85-7.76-6.98-2.12-1.63-4.33-3.11-6.64-4.45-1.46-.85-2.95-1.64-4.48-2.38-2.06-1-4.15-1.89-6.29-2.69-2.44-.91-4.94-1.65-7.48-2.24-1.92-.45-3.85-.84-5.79-1.19-1.11-.2-2.24-.25-3.36.03-.04,0-.08-.01-.09-.01,0-.56-.04-1.1,0-1.65Zm52.16,40.18c-.44.67-1.08.99-1.96.76-.55-.15-1.07-.37-1.53-.69-.57-.39-1.11-.82-1.66-1.23-.11-.08-.19-.2-.33-.34,1.25-1.05,2.55-1.91,3.91-2.76.16.22.33.41.45.62.54.88.94,1.82,1.26,2.8.1.31.04.58-.13.84Zm-51.51-37.28c.1-.06.24-.07.37-.07.92-.04,1.83-.03,2.72.25.33.1.68.15,1.08.24-.39,1.55-.82,3.04-1.36,4.48-.07,0-.1.03-.12.01-.97-.58-1.96-1.12-2.72-1.98-.22-.25-.42-.53-.61-.81-.54-.81-.01-1.74.65-2.13Zm-13.64,1.22c-.03-.65-.13-1.29-.19-1.93-.08-.81-.15-1.63-.22-2.44-.04-.45-.09-.9-.13-1.35-.01-.13-.01-.27-.02-.44,2.09.33,4.14.44,6.19.47,2.05.03,4.09-.02,6.18-.3,0,.17.01.34,0,.51-.07.9-.16,1.8-.22,2.7-.05.83-.05,1.66-.11,2.49-.09,1.19.37,2.14,1.17,2.97.61.63,1.3,1.17,2.06,1.61.38.21.74.45,1.14.7-.41.69-.82,1.26-1.32,1.75-.6.59-1.37.78-2.17.81-1.92.05-3.84.09-5.75.09-1.96,0-3.92-.05-5.88-.09-1.48-.03-2.78-.58-3.9-1.52-.41-.34-.77-.74-1.15-1.13-.12-.13-.21-.29-.33-.45.28-.16.52-.3.76-.44.83-.48,1.66-.96,2.49-1.44.97-.57,1.49-1.41,1.43-2.55Zm-1.85,1.2c-.37.28-.79.49-1.19.72-.71.42-1.43.85-2.15,1.27-.06.03-.12.05-.21.09-.53-.95-.78-1.91-.79-2.95,0-.58.25-1,.78-1.24,1.12-.51,2.25-.46,3.35.04.82.38.93,1.51.21,2.07ZM30.69,62.31c-1.07-.57-2.15-1.12-3.2-1.73-1.16-.69-2.13-1.57-2.61-2.89-.31-.85-.24-1.65.19-2.44,1.11-2.03,2.25-4.04,3.51-5.98,1.11-1.72,2.27-3.4,3.53-5.01,1.22-1.57,2.46-3.13,3.78-4.62,1.3-1.47,2.68-2.86,4.06-4.26,1.72-1.74,3.53-3.37,5.44-4.89,1.54-1.23,3.13-2.41,4.73-3.57,1.74-1.27,3.58-2.4,5.43-3.51,2.44-1.47,4.96-2.8,7.55-3.98,1.78-.81,3.59-1.57,5.41-2.28,3.09-1.2,6.26-2.17,9.48-2.95,1.96-.47,3.94-.84,5.91-1.24.59-.12,1.17-.03,1.73.24,1.38.64,2.11,1.79,2.49,3.19.23.84.38,1.71.51,2.57.2,1.22.37,2.45.51,3.68.13,1.06.21,2.13.31,3.2.02.21,0,.41,0,.65-.11-.01-.19-.01-.27-.04-1.1-.36-2.22-.37-3.35-.18-2.58.44-5.14.99-7.66,1.72-1.92.56-3.83,1.17-5.68,1.91-1.48.59-2.95,1.21-4.39,1.87-1.15.53-2.27,1.14-3.38,1.73-.9.48-1.79.96-2.66,1.48-.96.59-1.91,1.2-2.83,1.85-1.35.94-2.7,1.9-4.02,2.89-.87.65-1.71,1.35-2.51,2.07-1.31,1.18-2.62,2.37-3.86,3.61-1.87,1.86-3.63,3.83-5.22,5.94-.91,1.2-1.84,2.4-2.66,3.66-1.11,1.7-2.13,3.45-3.19,5.18-.13.22-.27.43-.38.66-.68,1.33-1.22,2.12-1.37,3.9-.09-.03-.18-.05-.27-.09-1.73-.69-3.42-1.46-5.07-2.33Zm8.42-1.58c1.36.85,2.64,1.73,3.83,2.72-.04.1-.04.11-.05.12-1.01.86-2.01,1.73-3.3,2.15-1.05.34-1.78-.16-2.17-1-.07-.15-.07-.37-.01-.52.28-.71.59-1.4.89-2.09.11-.26.26-.5.4-.75.12-.2.26-.4.41-.63Zm11.36,80.92c.46-.45.69-1,.73-1.66.08-1.3-.1-2.56-.46-3.8-.03-.1-.04-.21-.03-.34,6.3,5.43,12.87,10.46,20.08,14.63,0,.03,0,.06-.01.09-.13,0-.26.02-.39.02-1.45,0-2.91,0-4.36-.03-1.42-.03-2.85-.1-4.27-.15-.48-.01-.96,0-1.44,0-.59,0-.71.09-.88.65-.57,1.8-1.13,3.6-1.7,5.4-.16.52-.35,1.03-.53,1.58-.5-.1-.91-.31-1.3-.55-1.85-1.12-3.58-2.41-5.23-3.8-2.15-1.8-4.24-3.67-6.36-5.51-.06-.05-.11-.12-.2-.23.43-.44.83-.85,1.24-1.26,1.4-1.39,2.81-2.78,4.21-4.17.3-.3.61-.59.91-.88Zm-1.13-5.66c.26,1.45.84,2.81.45,4.3-1.03-.97-1.97-1.97-2.94-3.05.83-.42,1.63-.82,2.5-1.26Zm-18.01-57.18c-.82,1-1.11,2.2-1.27,3.44-.03.2.05.41.06.62,0,.14,0,.28-.02.42-.19,1.28-.4,2.56-.56,3.84-.14,1.17-.22,2.36-.32,3.54-.02.21-.02.42-.02.63-.02.68-.07,1.35-.06,2.03.02,1.25.05,2.51.11,3.76.04.93.11,1.86.2,2.78.13,1.32.25,2.64.45,3.95.27,1.71.58,3.42.97,5.1.48,2.08,1.06,4.14,1.73,6.18,1.06,3.19,2.35,6.28,3.89,9.26.81,1.56,1.69,3.09,2.6,4.59.83,1.37,1.72,2.71,2.65,4.02,1.23,1.75,2.54,3.45,3.98,5.04.87.96,1.74,1.92,2.62,2.88.12.13.28.24.43.36-.08.12-.12.2-.17.25-1.27,1.27-2.53,2.54-3.8,3.8-1.06,1.05-2.14,2.09-3.21,3.13-.52.51-1.13.85-1.83,1-.67.14-1.28-.06-1.77-.49-.56-.49-1.09-1.03-1.57-1.59-1.11-1.28-2.21-2.56-3.26-3.89-.98-1.24-1.91-2.52-2.82-3.81-.94-1.34-1.83-2.71-2.72-4.08-.45-.7-.87-1.42-1.28-2.14-1.44-2.57-2.79-5.19-3.96-7.9-.77-1.79-1.49-3.59-2.14-5.42-.73-2.07-1.38-4.17-1.94-6.3-.65-2.48-1.21-4.98-1.58-7.52-.23-1.56-.48-3.12-.65-4.69-.15-1.36-.25-2.72-.29-4.09-.06-2.38-.09-4.77-.08-7.15,0-1.31.13-2.62.23-3.93.08-1.05.16-2.11.28-3.16.12-1.02.29-2.03.45-3.05.06-.36.14-.72.19-1.08.13-.8.56-1.41,1.23-1.84.73-.48,1.53-.76,2.42-.8,1.23-.06,2.42.15,3.61.37,1.4.26,2.79.54,4.18.83,1,.21,2,.47,3,.71.05.01.1.05.2.1-.07.12-.11.21-.17.28Zm.71,4.71c-.34-.19-.52-.41-.52-.82.01-.79-.03-1.59.4-2.3.22-.37.48-.72.76-1.06.25-.3.61-.37.96-.27.48.15.91.38,1.02.95.21,1.08.43,2.15.64,3.23.05.23.07.46.12.75-1.22.03-2.34.09-3.39-.48Zm12.95-13.99h-11.46c.48,1.12,1.15,2.05,1.68,3.04.54,1,1.14,1.98,1.71,2.96.57.99,1.13,1.98,1.7,2.97.57.99,1.14,1.97,1.72,2.95-1.02,1.05-2.16,1.81-3.6,2.16-.12-.62-.24-1.2-.36-1.79-.15-.73-.3-1.46-.45-2.19-.2-.98-.89-1.52-1.77-1.81-.77-.26-1.58-.43-2.37-.63-.9-.23-1.8-.45-2.71-.67-.31-.08-.63-.13-.96-.19.57-1.29,1.16-2.53,1.68-3.8.52-1.28,1.01-2.57,1.43-3.88.42-1.31.74-2.64,1.11-4,.41.18.78.34,1.15.5,1.34.56,2.69,1.1,4.02,1.67.99.42,1.97.41,2.95-.02.75-.33,1.46-.73,2.1-1.26.44-.37.9-.72,1.38-1.1,1.73,1.78,1.77,3.12,1.05,5.09Zm1.41-.04c.03-.12.04-.24.08-.36.67-1.86.17-3.49-.97-4.99-.93-1.23-2.11-2.19-3.35-3.08-.69-.49-1.4-.95-2.1-1.42-.08-.05-.16-.11-.26-.19,3.32-5.63,7.35-10.67,12.2-15.14,4.33,8.32,8.38,16.71,12.52,25.17h-18.12Zm76.14-25.8c-17.91,0-35.82,0-53.73,0-4.11,0-8.21-.02-12.32-.03-1.17,0-2.34-.01-3.51-.02-.02,0-.04-.03-.07-.04.11-.26,2.51-2.3,3.57-3.11,8.09-6.18,17.11-10.32,27.09-12.4.02.1.05.14.04.17-.28,1.62.13,3.11.89,4.51.98,1.8,2.37,3.18,4.21,4.09.92.46,1.92.67,2.94.69,2.92.07,5.84.15,8.76.17,1.31,0,2.62-.13,3.92-.24.86-.07,1.58-.48,2.21-1.07.62-.58,1.13-1.25,1.54-2,.92-1.69,1.42-3.52,1.88-5.37.07-.27.13-.54.21-.87.27.04.55.05.82.11,2.22.51,4.44,1.04,6.61,1.75,1.57.51,3.12,1.06,4.65,1.67,2.44.96,4.8,2.11,7.1,3.37,2.02,1.1,3.97,2.33,5.86,3.63,1.86,1.28,3.62,2.69,5.33,4.17.26.23.52.45.79.68-.01.03-.02.07-.03.1-.13,0-.26.03-.39.03-6.12,0-12.25,0-18.37,0Zm24.52,24.41c.08.47.22.92.34,1.42h-18.1c2.1-4.27,4.19-8.49,6.24-12.73.83-1.72,6.22-12.31,6.47-12.6,3.27,3.01,6.17,6.33,8.72,9.97,1.15,1.65,2.27,3.32,3.21,5.13-.11.08-.18.15-.26.2-1.49.97-2.96,1.96-4.26,3.19-.82.78-1.53,1.65-2.02,2.69-.41.87-.51,1.78-.34,2.72Zm10.78,11.31c-.27,1.24-.51,2.48-.77,3.72-.02.08-.04.16-.08.27-1.34-.29-2.38-1.06-3.38-1.9,2.29-4,4.56-7.95,6.87-11.99-3.94-.03-7.8.02-11.67.01-.04-.09-.09-.16-.11-.24-.14-.56-.29-1.12-.4-1.68-.05-.27-.04-.56.01-.83.22-1.02.78-1.86,1.48-2.59.6.49,1.18.97,1.78,1.44.81.64,1.74,1.04,2.74,1.27.45.11.9.07,1.33-.09.82-.31,1.64-.61,2.45-.94,1.03-.42,2.04-.88,3.07-1.32.08-.03.16-.05.28-.08.92,4.03,2.29,7.89,4.21,11.6-.19.06-.35.12-.51.15-1.84.35-3.63.92-5.45,1.38-.63.16-1.13.52-1.53,1.01-.18.22-.27.53-.33.81Zm3.88,3.91c-1.05.51-2.15.62-3.38.46.09-.53.16-1.01.25-1.49.16-.82.33-1.63.49-2.44.06-.33.24-.55.52-.72.8-.5,1.28-.32,1.8.37.63.85.9,1.81.92,2.84,0,.45-.19.78-.6.98Zm-18.12,54.79c.14-.76.35-1.5.53-2.26,0-.04.05-.06.1-.13.94.5,1.86.98,2.84,1.5-1.03,1.09-2.01,2.14-2.99,3.18-.33-.06-.45-.26-.51-.53-.14-.59-.09-1.18.02-1.76Zm4.45,11.02c-1.97,1.64-3.93,3.3-5.94,4.9-1.57,1.25-3.19,2.43-4.95,3.39-.29.16-.57.35-.95.34-.14-.47-.27-.93-.41-1.38-.57-1.86-1.15-3.71-1.72-5.57-.15-.5-.36-.65-.89-.64-3.29.05-6.57.1-9.86.16-.19,0-.39,0-.6-.04.96-.68,1.98-1.26,2.96-1.89,1-.64,2-1.26,2.99-1.92.98-.66,1.95-1.34,2.91-2.03.96-.69,1.92-1.39,2.86-2.11.95-.71,1.89-1.43,2.81-2.17.93-.74,1.84-1.49,2.75-2.25.9-.76,1.79-1.53,2.68-2.29.02.01.04.03.06.04-.03.13-.05.27-.09.4-.34,1.2-.46,2.43-.4,3.68.03.6.24,1.12.67,1.55,1.16,1.14,2.3,2.28,3.45,3.43.91.91,1.82,1.81,2.72,2.72.13.13.26.25.42.4-.5.45-.96.89-1.46,1.3Zm29.99-52.93c-.04,1.58-.17,3.15-.32,4.73-.14,1.46-.34,2.91-.56,4.36-.21,1.42-.45,2.84-.71,4.25-.13.72-.33,1.43-.5,2.14-.25,1.04-.49,2.09-.77,3.12-.66,2.39-1.41,4.76-2.3,7.07-1.1,2.87-2.33,5.68-3.76,8.41-1.42,2.71-2.93,5.37-4.66,7.9-.99,1.44-2.03,2.85-3.06,4.26-1.4,1.92-2.95,3.7-4.55,5.46-.16.18-.31.36-.46.55-1.01,1.25-2.45,1.45-3.74.47-.54-.41-1.01-.9-1.5-1.37-1.47-1.44-2.94-2.89-4.4-4.34-.58-.57-1.15-1.16-1.73-1.73,1.08-1.19,2.15-2.35,3.2-3.52,1.13-1.25,2.17-2.56,3.15-3.92.93-1.29,1.84-2.6,2.72-3.93.61-.92,1.17-1.86,1.7-2.83.9-1.65,1.78-3.3,2.6-4.98.62-1.27,1.14-2.58,1.67-3.88.83-2.07,1.53-4.18,2.13-6.33.59-2.1,1.11-4.22,1.46-6.38.23-1.43.47-2.86.65-4.3.14-1.13.24-2.27.27-3.41.06-2.26.09-4.51.08-6.77,0-1.11-.13-2.22-.21-3.33-.07-.91-.15-1.83-.27-2.73-.16-1.19-.35-2.37-.56-3.55-.1-.55-.25-1.1-.42-1.63-.16-.51-.46-.97-.81-1.38-.05-.06-.08-.14-.15-.25.23-.06.43-.11.63-.16,1.52-.35,3.04-.73,4.57-1.05,1.28-.27,2.57-.51,3.87-.69.96-.13,1.94-.21,2.9.05,1.39.38,2.41,1.17,2.67,2.68.26,1.54.53,3.08.69,4.64.22,2.1.39,4.21.48,6.33.08,2.03.06,4.06,0,6.1Z"/>
  </g>
  <path class="cls-1" d="m105.23,81.87l2.81-.28v-1.97h-12.05v1.97l2.67.27c.05,2.8.07,5.6.07,8.39h-8.14c0-2.84.02-5.64.07-8.4l2.67-.26v-1.97h-12.05v1.97l2.81.29c.06,3.03.07,6.07.07,9.09v1.35c0,3.07-.02,6.11-.07,9.09l-2.81.29v1.97h12.05v-1.97l-2.69-.26c-.06-2.95-.06-5.95-.06-9.06h8.14c0,3.15,0,6.15-.06,9.06l-2.69.27v1.97h12.05v-1.97l-2.81-.28c-.06-3.03-.07-6.08-.07-9.1v-1.35c0-3.08.02-6.11.07-9.1Z"/>
  <path class="cls-1" d="m124.4,120.7l-.45,8.89h-22.8v-1.94l3.32-.28c.07-2.93.07-5.81.07-8.22v-2.09c0-3,0-6-.07-8.98l-3.32-.28v-1.94h14.52v1.94l-3.67.31c-.07,2.95-.07,5.95-.07,8.96v1.9c0,2.58,0,5.55.07,8.57h4.23c2.2,0,4.17-1.37,4.93-3.42l1.26-3.41h1.97Z"/>
  <path class="cls-1" d="m76.89,53.68l9.15,21.25c.26.6.55,1,.86,1.22.31.21.72.32,1.23.32h.9s0,1.49,0,1.49l-11.53-.03v-1.49s1.08,0,1.08,0c.85,0,1.44-.09,1.76-.27.32-.18.48-.42.48-.72,0-.23-.06-.51-.2-.82l-1.88-4.39-9.2-.03-.88,2c-.37.83-.55,1.45-.55,1.85,0,.69.26,1.26.79,1.69s1.26.65,2.18.65h.78s0,1.49,0,1.49l-9.34-.03v-1.49s.54,0,.54,0c.6,0,1.13-.18,1.59-.54.65-.51,1.15-1.16,1.51-1.96l8.87-20.23h1.87Zm-2.69,5.98l-3.96,9,7.84.02-3.87-9.03Z"/>
</svg>